<svg width="308" height="200" viewBox="0 0 308 200" fill="none" xmlns="http://www.w3.org/2000/svg">
<g clip-path="url(#clip0_301_1566)">
<rect width="308" height="200" fill="#FBB6CE"/>
<rect width="308" height="200" fill="#B2F5EA"/>
<g clip-path="url(#clip1_301_1566)">
<path d="M170.875 100C170.875 103.902 170.664 107.664 170.295 111.25H137.705C137.318 107.664 137.125 103.902 137.125 100C137.125 96.0977 137.336 92.3359 137.705 88.75H170.295C170.682 92.3359 170.875 96.0977 170.875 100ZM175.938 88.75H197.576C198.508 92.3535 199 96.1152 199 100C199 103.885 198.508 107.646 197.576 111.25H175.938C176.307 107.629 176.5 103.867 176.5 100C176.5 96.1328 176.307 92.3711 175.938 88.75ZM195.73 83.125H175.217C173.459 71.8926 169.979 62.4883 165.496 56.4766C179.26 60.1152 190.457 70.0996 195.713 83.125H195.73ZM169.521 83.125H138.479C139.551 76.7266 141.203 71.0664 143.225 66.4785C145.07 62.3301 147.127 59.3242 149.113 57.4258C151.082 55.5625 152.717 55 154 55C155.283 55 156.918 55.5625 158.887 57.4258C160.873 59.3242 162.93 62.3301 164.775 66.4785C166.814 71.0488 168.449 76.709 169.521 83.125ZM132.783 83.125H112.27C117.543 70.0996 128.723 60.1152 142.504 56.4766C138.021 62.4883 134.541 71.8926 132.783 83.125ZM110.424 88.75H132.062C131.693 92.3711 131.5 96.1328 131.5 100C131.5 103.867 131.693 107.629 132.062 111.25H110.424C109.492 107.646 109 103.885 109 100C109 96.1152 109.492 92.3535 110.424 88.75ZM143.225 133.504C141.186 128.934 139.551 123.273 138.479 116.875H169.521C168.449 123.273 166.797 128.934 164.775 133.504C162.93 137.652 160.873 140.658 158.887 142.557C156.918 144.438 155.283 145 154 145C152.717 145 151.082 144.438 149.113 142.574C147.127 140.676 145.07 137.67 143.225 133.521V133.504ZM132.783 116.875C134.541 128.107 138.021 137.512 142.504 143.523C128.723 139.885 117.543 129.9 112.27 116.875H132.783ZM195.73 116.875C190.457 129.9 179.277 139.885 165.514 143.523C169.996 137.512 173.459 128.107 175.234 116.875H195.73Z" fill="#4FD1C5"/>
</g>
</g>
<defs>
<clipPath id="clip0_301_1566">
<rect width="308" height="200" fill="white"/>
</clipPath>
<clipPath id="clip1_301_1566">
<rect width="90" height="90" fill="white" transform="translate(109 55)"/>
</clipPath>
</defs>
</svg>
