<svg width="308" height="200" fill="none" xmlns="http://www.w3.org/2000/svg"><g clip-path="url(#a)"><path fill="#FBB6CE" d="M0 0h308v200H0z"/><path fill="#D5CEFF" d="M0 0h308v200H0z"/><path d="M122.859 94.656 109 118.194V74.866c0-5.466 4.484-9.91 10-9.91h18.359a10.05 10.05 0 0 1 7.079 2.895l4.14 4.104a10.05 10.05 0 0 0 7.078 2.896H174c5.516 0 10 4.444 10 9.91v4.956h-52.5a10.016 10.016 0 0 0-8.641 4.924v.015Zm4.313 2.494a5.013 5.013 0 0 1 4.328-2.463H194a4.97 4.97 0 0 1 4.328 2.494 4.919 4.919 0 0 1-.016 4.971l-17.499 29.732a4.99 4.99 0 0 1-4.313 2.446H114a4.97 4.97 0 0 1-4.328-2.493 4.918 4.918 0 0 1 .016-4.971l17.5-29.732-.016.016Z" fill="#AA9DFF"/></g><defs><clipPath id="a"><path fill="#fff" d="M0 0h308v200H0z"/></clipPath></defs></svg>